<svg width="1200" height="1200" viewBox="0 0 1200 1200" fill="none" xmlns="http://www.w3.org/2000/svg">
<path fill-rule="evenodd" clip-rule="evenodd" d="M233.312 487.771C276.912 472.382 369.882 441.221 392.965 439.682C348.896 478.777 250.808 568.906 211.011 616.663C208.829 619.281 206.645 621.896 204.464 624.508L204.463 624.508C160.646 676.974 118.081 727.94 119.015 773.152C119.005 773.563 119 773.977 119 774.391C119 795.227 131.764 813.082 149.899 820.564C152.944 821.936 156.211 822.97 159.695 823.55C160.733 823.724 161.775 823.855 162.819 823.948C164.821 824.192 166.859 824.318 168.927 824.318C178.758 824.318 187.926 821.476 195.654 816.569C205.798 811.886 216.117 805.557 226.552 799.156C229.345 797.442 232.147 795.724 234.956 794.03L236.264 793.241C262.057 777.686 308.765 749.516 350.272 743.632C304.06 804.186 218.541 978.942 204.199 1044.28C256.926 999.616 346.821 937.788 451.893 865.523L451.894 865.523L451.896 865.521C464.027 857.178 476.36 848.695 488.862 840.084C530.112 811.671 571.069 785.248 611.354 759.259L611.356 759.257L611.358 759.256L611.36 759.255C647.477 735.954 683.055 713.002 717.818 689.277C753.61 664.849 788.773 639.286 806.516 618.861C811.206 613.873 814.434 607.495 815.516 600.41C816.049 597.039 816.057 593.665 815.59 590.383C813.859 577.777 805.345 567.334 793.848 562.854C792.846 562.452 791.815 562.091 790.759 561.775C777.016 557.661 717.124 554.236 661.246 556.185C598.788 558.364 526.366 569.794 474.487 578.908C508.5 536.638 597.094 445.186 685.58 370.526C725.75 336.632 885.542 212.46 994 149C930.972 149 774.209 176.274 578.999 267.689C375.037 363.203 267.748 453.213 233.312 487.771ZM247.542 709.107C264.037 709.107 277.409 695.735 277.409 679.239C277.409 662.744 264.037 649.371 247.542 649.371C231.046 649.371 217.674 662.744 217.674 679.239C217.674 695.735 231.046 709.107 247.542 709.107ZM884.069 577.121C908.953 577.121 929.125 556.948 929.125 532.064C929.125 507.18 908.953 487.008 884.069 487.008C859.185 487.008 839.013 507.18 839.013 532.064C839.013 556.948 859.185 577.121 884.069 577.121Z" fill="#EFC942"/>
</svg>
